<svg xmlns="http://www.w3.org/2000/svg" width="17" height="17">
    <path fill-rule="evenodd" opacity=".702" fill="#FF5C70" d="m16.734 15.483-4.189-4.208c1.077-.885 1.667-2.792 1.667-4.412C14.212 3.78 11.24 0 7.105 0 3.186 0 .1 3.78.1 6.863c0 3.784 3.086 6.864 7.005 6.864a7.203 7.203 0 0 0 4.072-1.243l4.221 4.24c.176.177.414.275 1.262.275-.353 0-.125-.089.048-.25 1.062-.342 1.172-.91.026-1.266zM7.105 1.79c2.995 0 5.253 2.87 5.253 5.073 0 2.797-2.258 5.073-5.253 5.073-2.897 0-5.253-2.276-5.253-5.073 0-2.203 2.356-5.073 5.253-5.073z"/>
</svg>
