<svg height="475pt" viewBox="-59 0 475 475.57" width="475pt" xmlns="http://www.w3.org/2000/svg">
    <path d="M318.918 187.566h-.668a36.676 36.676 0 0 0-24.719 9.399c-5.492-15.2-19.449-26.125-35.797-26.125a37.139 37.139 0 0 0-26.53 11.414c-6.384-12.922-19.188-21.688-33.911-21.688h-.711a34.815 34.815 0 0 0-21.832 7.274V75.719c0-22.262-17.332-40.371-38.414-40.371-21.059 0-38.3 18.097-38.313 40.343l-.175 182.774-10.344-12.563a52.171 52.171 0 0 0-36.867-19.363 51.334 51.334 0 0 0-38.457 13.61l-9 7.456a8 8 0 0 0-1.993 9.852l87.504 168.2c16 30.738 46.442 49.913 79.446 49.913h98.613v-.086c50 0 90.54-43.386 90.59-96.66.02-23.836-.07-41.601-.055-56 .05-38.523.012-52.738-.086-95.18-.05-22.21-17.258-40.078-38.281-40.078zm22.25 135.204c-.016 14.402-.04 32.238-.063 56.074-.042 44.465-33.609 80.722-74.824 80.722h-98.14c-27.016 0-52.02-15.878-65.25-41.3L18.363 255.84l4.172-3.48c.106-.087.207-.188.309-.278a35.512 35.512 0 0 1 26.664-9.578 36.303 36.303 0 0 1 25.61 13.562l24.487 29.797a7.998 7.998 0 0 0 14.18-5.07l.145-205.094c.007-13.43 10.164-24.355 22.414-24.355S158.75 62.28 158.75 75.719v123.66c0 .43-.02.863-.02 1.3 0 .188.02.38.02.563v52.871a8 8 0 0 0 16 0v-54.465c0-12.957 9.898-23.082 21.832-23.082h.711c12.258 0 22.457 10.684 22.457 24.122v48.378a8 8 0 0 0 16 0V211.11c0-13.441 9.71-24.375 22.035-24.375 12.254 0 21.965 10.93 21.965 24.375v35.809a8 8 0 0 0 16 0v-19.39c0-13.442 10.242-23.962 22.5-23.962h.668c12.227 0 22.191 10.7 22.223 24.098.097 42.41.078 56.61.027 95.106zm0 0"/>
    <path d="M72.61 79.172a8 8 0 0 0 8-8c.128-30.527 24.913-55.203 55.437-55.203 30.527 0 55.308 24.676 55.437 55.203a8 8 0 0 0 16 0C207.336 31.82 175.398 0 136.047 0c-39.348 0-71.29 31.82-71.438 71.172a8 8 0 0 0 8 8zm0 0"/>
</svg>
