<svg xmlns="http://www.w3.org/2000/svg" width="786.5" height="786.5" viewBox="0 0 786.5 786.5" style="enable-background:new 0 0 786.5 786.5" xml:space="preserve">
    <path d="M566 549.2c-.199-1.6-.6-3.201-1.1-4.701-3.801-14.6-12.5-41.299-16.5-53.199-.4-2.1-1.1-4.1-2-6 0 0-6.4-9.6-11.201-12.5 0 0-2.398-1.301-2.699-1.4-9.5-4.5-38.9-16.299-38.9-16.299-14.699-6.4-29.9-11.801-45.4-17.301-2.799 11.5-29.1 88.1-33.299 98.801L411.6 465.4c1.1-1.699 1.9-3.6 2.801-5.4l11-21.699c-7.701 6.4-19.301 10.5-32.3 10.5-12.7 0-24-3.9-31.7-10.1l10.7 21.199c.9 1.801 1.7 3.801 2.8 5.4l-3.3 71.199c-4.2-10.6-30.5-87.199-33.3-98.799-15.5 5.5-30.7 11-45.4 17.299 0 0-29.4 11.801-38.9 16.301-.3.199-2.4 1.199-2.7 1.4 0 0-8.8 7.299-11.2 12.4 0 0-1.6 3.898-2 6-3.9 11.898-12.6 38.5-16.5 53.199-.5 1.5-.9 3.1-1.1 4.699-.2 1.4-.3 2.9-.3 4.301 0 15.699 12.7 28.4 28.4 28.4H538.402c15.699 0 28.4-12.701 28.4-28.4-.501-1.198-.603-2.698-.802-4.099zM467.199 306.2c0-5 1-23.2 1-27.3 0-40.5-32.898-73.4-73.399-73.4H391.6c-40.5 0-73.4 32.9-73.4 73.4 0 4.2 1 22.3 1 27.3-1.8.1-18.199-3.9-16.399 15.8 3.7 41.7 19.7 33.7 20.1 33.7 7.8 25.2 20 41.2 31.9 51.401 18.6 15.898 36.6 17.699 37 17.699h3c.299 0 18.2-1.699 36.7-17.5 12-10.199 24.199-26.3 32.1-51.6.5 0 16.4 8.1 20.1-33.7 1.699-19.7-14.701-15.7-16.502-15.8zM218.3 476.8l.2-.6.3-.6c2.2-4.801 5.8-9.5 11.3-14.9 1.2-1.1 4.8-4.701 7.7-6.701.2-.1.4-.299.6-.398.1-.102.2-.201.4-.201 2-1.299 4.4-2.4 5.2-2.799 6.5-3.102 20.5-8.801 30.2-12.801-.3-.1-.6-.301-1-.5-.3-.1-.6-.301-.9-.4-8.3-3.9-33.9-14.199-33.9-14.199-12.8-5.5-26.1-10.301-39.6-15.1-2.4 10.1-25.4 76.799-29 86.1l-2.9-62.1c1-1.5 1.6-3.102 2.4-4.701l9.6-18.9c-6.7 5.602-16.8 9.201-28.1 9.201-11 0-20.9-3.4-27.7-8.801l9.4 18.5c.8 1.6 1.4 3.301 2.4 4.701l-2.9 62.1c-3.6-9.201-26.6-76-29-86.1-13.5 4.799-26.8 9.5-39.6 15.1 0 0-25.6 10.299-33.9 14.199-.3.1-.6.301-.9.4-.7.4-1.2.6-1.5.801-4.3 2.5-7.7 6.299-9.8 10.799v.1c-.8 1.602-1.4 3.4-1.7 5.201-3.4 10.4-11 33.6-14.3 46.299-.4 1.301-.8 2.701-1 4.102-.2 1.199-.3 2.5-.3 3.799 0 13.701 11.1 24.701 24.7 24.701H200.6c4.2-14.801 10.9-35.602 15.1-48.102.6-3.101 1.8-6.399 2.6-8.2zM89.4 335.8c6.8 21.9 17.4 35.9 27.8 44.8 16.2 13.899 31.9 15.399 32.2 15.399h2.6c.3 0 15.9-1.5 32-15.299 10.5-8.9 21.1-22.9 28-45 .4 0 14.3 7.1 17.6-29.3 1.5-17.2-12.8-13.7-14.3-13.8 0-4.4.9-20.2.9-23.8 0-35.3-28.7-64-64-64h-2.8c-35.3 0-64 28.7-64 64 0 3.6.9 19.5.9 23.8-1.6.1-15.9-3.4-14.3 13.8 3.1 36.5 17 29.4 17.4 29.4zM786 483.399c-.199-2.299-.5-4.6-.801-6.9 0 0-1.299-7.398-1.6-8.6-3-13.1-11.1-22.6-22.1-30.1-2.1-1.4-4.199-2.6-6.301-3.699-2.799-1.5-45.799-15.602-46.898-16 .299 1.5.398 3.1.5 4.898 6 4.201 23.6 19.4 15.6 47.701 0 0-12.701-15.1-25.6-17-12.301 21.4-33.201 48.6-44.5 55.699C643 502.3 622.1 475.2 609.801 453.7c-12.9 1.9-25.602 17-25.602 17-8-28.4 9.602-43.5 15.602-47.701.1-1.799.199-3.398.5-4.898-1.102.398-44.102 14.5-46.9 16-2.201 1.1-4.301 2.299-6.301 3.699-4.299 2.9-8.1 6.1-11.4 9.699 2.602 1.102 4.801 2.102 6.602 2.9a39.541 39.541 0 0 1 4.699 2.5c4.5 2.701 8.9 6.801 13.699 12.801 4.801 6.1 6.4 9 7.201 10.9a50.24 50.24 0 0 1 2.9 8.5c4.1 12.5 10.898 33.299 15 48H753.6c9.9 0 18.301-3 25.301-10.4 5.4-5.801 7-12.701 7.4-20.201.1-1.299.199-7 .199-7s-.5-12-.5-12.1z"/>
    <path d="M576.4 348.4c1 3.7 1.699 7.2 1.699 10.5 0 1.1-.1 2.2-.299 3.3-.9 3.1-7.5 13.7-8.602 15.5 11.701 12.6 27.102 15.5 42.301 18.7 4.5.9 9.1 1.5 14 2.1 1.6.301 3.199.602 4.801.9l-7.701 22.6s-.199 33 31.701 53.102h.199C686.399 455 686.198 422 686.198 422l-7.699-22.6 4.801-.9c4.898-.6 9.5-1.199 14-2.1 15.2-3.2 30.7-6.1 42.3-18.7-1.1-1.8-7.699-12.4-8.6-15.5-.199-1.1-.301-2.2-.301-3.3 0-3.3.602-6.8 1.701-10.5 1-3.5 2.1-7 3.199-10.6 5.201-11.5 8-24.2 8-37.7 0-49.9-39.699-90.5-89-91.4h-.2c-49.301.9-89 41.5-89 91.4 0 13.4 2.9 26.2 8 37.7.902 3.6 2.001 7.1 3.001 10.6z"/>
</svg>
